<svg width="34" height="35" viewBox="0 0 34 35" fill="none" xmlns="http://www.w3.org/2000/svg">
<path d="M17.0012 17.2002C19.9762 17.2002 22.3137 14.8627 22.3137 11.8877C22.3137 8.9127 19.9762 6.5752 17.0012 6.5752C14.0262 6.5752 11.6887 8.9127 11.6887 11.8877C11.6887 14.8627 14.0262 17.2002 17.0012 17.2002ZM26.8825 26.5502C25.5012 21.1314 19.9762 17.7314 14.5575 19.1127C10.945 20.0689 8.07624 22.8314 7.11999 26.5502C7.01374 27.0814 7.33249 27.719 7.96999 27.8252C8.07624 27.8252 8.18249 27.8252 8.18249 27.8252H25.82C26.4575 27.8252 26.8825 27.4002 26.8825 26.7627C26.8825 26.6565 26.8825 26.5502 26.8825 26.5502Z" />
</svg>
