<svg  viewBox="0 0 34 35" fill="none" xmlns="http://www.w3.org/2000/svg">
<path fill-rule="evenodd" clip-rule="evenodd" d="M22.5848 11.3017H23.9582C24.6633 11.3079 25.3435 11.5616 25.8782 12.0181C26.413 12.4746 26.7678 13.1043 26.8799 13.7957C26.9919 14.487 26.854 15.1955 26.4904 15.7956C26.1269 16.3956 25.5613 16.8485 24.8938 17.0741L24.1573 24.4478C24.083 25.1817 23.736 25.8619 23.1839 26.3553C22.6318 26.8488 21.9143 27.1202 21.1716 27.1165H12.8314C12.0886 27.1202 11.3712 26.8488 10.8191 26.3553C10.267 25.8619 9.91993 25.1817 9.84566 24.4478L9.10918 17.0741C8.44309 16.8492 7.87836 16.3979 7.51459 15.7999C7.15081 15.2018 7.01137 14.4954 7.12085 13.8052C7.23033 13.115 7.5817 12.4854 8.11299 12.0274C8.64428 11.5693 9.32136 11.3123 10.0248 11.3017H11.3982L13.12 7.89166C13.2496 7.67781 13.4558 7.52056 13.6973 7.45147C13.9388 7.38238 14.1976 7.40657 14.4219 7.51918C14.6461 7.6318 14.8192 7.82449 14.9063 8.05859C14.9934 8.29268 14.9882 8.55084 14.8916 8.78124L13.6276 11.3017H20.3555L19.0915 8.78124C19.0209 8.66477 18.9753 8.53511 18.9575 8.40034C18.9397 8.26558 18.95 8.12861 18.9879 7.998C19.0258 7.86739 19.0904 7.74595 19.1777 7.64126C19.265 7.53656 19.3731 7.45088 19.4952 7.38955C19.6173 7.32821 19.7509 7.29256 19.8875 7.28481C20.0242 7.27706 20.1609 7.29738 20.2893 7.34451C20.4177 7.39163 20.5349 7.46454 20.6336 7.55868C20.7323 7.65283 20.8104 7.76618 20.863 7.89166L22.5848 11.3017ZM19.6861 22.8711C19.4994 23.0565 19.2463 23.1606 18.9823 23.1606C18.7184 23.1606 18.4652 23.0565 18.2786 22.8711C18.0919 22.6857 17.9871 22.4343 17.9871 22.1722V20.1953C17.9871 19.9332 18.0919 19.6818 18.2786 19.4964C18.4652 19.311 18.7184 19.2069 18.9823 19.2069C19.2463 19.2069 19.4994 19.311 19.6861 19.4964C19.8727 19.6818 19.9776 19.9332 19.9776 20.1953V22.1722C19.9776 22.4343 19.8727 22.6857 19.6861 22.8711ZM15.7051 22.8711C15.5184 23.0565 15.2653 23.1606 15.0013 23.1606C14.7374 23.1606 14.4842 23.0565 14.2976 22.8711C14.111 22.6857 14.0061 22.4343 14.0061 22.1722V20.1953C14.0061 19.9332 14.111 19.6818 14.2976 19.4964C14.4842 19.311 14.7374 19.2069 15.0013 19.2069C15.2653 19.2069 15.5184 19.311 15.7051 19.4964C15.8917 19.6818 15.9966 19.9332 15.9966 20.1953V22.1722C15.9966 22.4343 15.8917 22.6857 15.7051 22.8711ZM10.0251 15.2532H23.9586C24.2225 15.2532 24.4757 15.1491 24.6623 14.9637C24.8489 14.7783 24.9538 14.5269 24.9538 14.2648C24.9538 14.0026 24.8489 13.7512 24.6623 13.5659C24.4757 13.3805 24.2225 13.2764 23.9586 13.2764H10.0251C9.76116 13.2764 9.50802 13.3805 9.32137 13.5659C9.13473 13.7512 9.02987 14.0026 9.02987 14.2648C9.02987 14.5269 9.13473 14.7783 9.32137 14.9637C9.50802 15.1491 9.76116 15.2532 10.0251 15.2532Z" fill="#99A3AE"/>
</svg>
