<svg width="32" height="32" viewBox="0 0 32 32" fill="none" xmlns="http://www.w3.org/2000/svg">
<path d="M3.42172 9.65599C3.52839 9.60363 3.66554 9.57308 3.82809 9.58617C5.13864 9.69089 6.49999 9.6778 7.7953 9.44654C8.45057 9.32872 9.15157 9.24146 9.82716 9.23273C10.5942 9.224 11.2495 9.41164 12.0317 9.30255C12.1028 9.29382 12.1689 9.29382 12.2298 9.29818C12.24 9.29818 12.2451 9.29818 12.2552 9.29818C13.1797 9.27636 14.0991 9.27201 15.0236 9.26328C15.5722 9.70399 16.2478 9.41164 16.8523 9.50763C17.3704 9.58617 17.9698 9.28074 18.4067 9.74326L19.5191 9.74326C19.8442 9.74326 20.1795 9.69526 20.4893 9.75635C20.8246 9.82617 21.0887 10.0443 21.49 9.99197C21.8964 9.93961 22.3231 9.99198 22.7396 9.97453C23.0038 9.96144 23.2984 10.0836 23.527 9.88288C23.7454 9.68653 24.0959 9.70398 24.3092 9.47272C24.614 9.14546 25.1575 9.11492 25.5436 8.87493C25.8331 8.69602 26.1633 8.81384 26.4732 8.79202C26.7475 8.77456 27.0269 8.79202 27.3062 8.79202C27.7228 8.79202 28.1444 8.77021 28.5558 8.79639C28.9825 8.82693 29.267 8.66984 29.3787 8.34258C29.4397 8.16368 29.5565 8.14623 29.7038 8.05896C30.2524 7.73607 30.8518 7.42626 30.8366 6.72374C30.8366 6.62338 31.1465 6.56666 30.9128 6.38339C30.5725 6.11722 30.1966 5.85541 29.9426 5.53251C29.6632 5.18344 29.2111 5.2838 28.886 5.10926C28.7235 5.02199 28.5914 4.95654 28.3984 4.9609C28.0275 4.96963 27.6567 4.9609 27.2859 4.9609L24.9239 4.9609C24.5531 4.9609 24.1721 4.9129 23.8165 4.97399C23.4051 5.04381 23.1968 4.72092 22.8158 4.70783C21.8304 4.67728 20.8144 4.9129 19.8747 4.48529C19.321 4.48529 18.7572 4.44165 18.2086 4.49838C17.6447 4.5551 17.1774 4.30202 16.6542 4.25402C16.2885 4.21911 15.9126 4.24967 15.5418 4.24967L14.4293 4.24967C14.0585 4.24967 13.6623 4.17984 13.322 4.26711C12.88 4.3762 12.6921 3.98348 12.3213 4.0053C11.9505 4.02712 11.5796 4.00967 11.2088 4.00967C10.9294 4.00967 10.6551 4.00967 10.3758 4.00967C10.0608 4.00967 9.72049 3.94858 9.5173 4.24093C9.33951 4.02276 9.09061 3.98348 8.80107 4.0053C8.36422 4.04021 7.88165 3.89622 7.52608 4.2453C7.15527 4.2453 6.78445 4.2453 6.41364 4.2453C6.0479 4.2453 5.63645 4.17112 5.32151 4.28894C5.00657 4.40675 4.78307 4.71219 4.52401 4.94346C4.36654 5.08309 4.12779 5.22271 4.10239 5.38416C4.05668 5.65905 3.90937 5.69397 3.65031 5.68088C3.37093 5.66779 3.08139 5.72015 2.81724 5.66779C2.44643 5.59361 2.33468 5.96886 1.9537 5.94268C1.52701 5.91213 1.30351 6.18267 1.29843 6.51429C1.29843 6.75428 1.29843 6.98991 1.29843 7.2299C0.810781 7.52226 1.08 7.95424 1.02921 8.32514C1.00889 8.46913 0.947931 8.64367 1.13588 8.76148C1.38986 8.91857 1.51685 9.28509 1.86735 9.24582C2.30928 9.19782 2.58358 9.50763 3.00519 9.53381C3.14742 9.54254 3.28457 9.59053 3.4268 9.65162L3.42172 9.65599Z" fill="#D9315A"/>
<path d="M3.42172 18.656C3.52839 18.6036 3.66554 18.5731 3.82809 18.5862C5.13864 18.6909 6.49999 18.6778 7.7953 18.4465C8.45057 18.3287 9.15157 18.2415 9.82716 18.2327C10.5942 18.224 11.2495 18.4116 12.0317 18.3025C12.1028 18.2938 12.1689 18.2938 12.2298 18.2982C12.24 18.2982 12.2451 18.2982 12.2552 18.2982C13.1797 18.2764 14.0991 18.272 15.0236 18.2633C15.5722 18.704 16.2478 18.4116 16.8523 18.5076C17.3704 18.5862 17.9698 18.2807 18.4067 18.7433L19.5191 18.7433C19.8442 18.7433 20.1795 18.6953 20.4893 18.7564C20.8246 18.8262 21.0887 19.0443 21.49 18.992C21.8964 18.9396 22.3231 18.992 22.7396 18.9745C23.0038 18.9614 23.2984 19.0836 23.527 18.8829C23.7454 18.6865 24.0959 18.704 24.3092 18.4727C24.614 18.1455 25.1575 18.1149 25.5436 17.8749C25.8331 17.696 26.1633 17.8138 26.4732 17.792C26.7475 17.7746 27.0269 17.792 27.3062 17.792C27.7228 17.792 28.1444 17.7702 28.5558 17.7964C28.9825 17.8269 29.267 17.6698 29.3787 17.3426C29.4397 17.1637 29.5565 17.1462 29.7038 17.059C30.2524 16.7361 30.8518 16.4263 30.8366 15.7237C30.8366 15.6234 31.1465 15.5667 30.9128 15.3834C30.5725 15.1172 30.1966 14.8554 29.9426 14.5325C29.6632 14.1834 29.2111 14.2838 28.886 14.1093C28.7235 14.022 28.5914 13.9565 28.3984 13.9609C28.0275 13.9696 27.6567 13.9609 27.2859 13.9609L24.9239 13.9609C24.5531 13.9609 24.1721 13.9129 23.8165 13.974C23.4051 14.0438 23.1968 13.7209 22.8158 13.7078C21.8304 13.6773 20.8144 13.9129 19.8747 13.4853C19.321 13.4853 18.7572 13.4417 18.2086 13.4984C17.6447 13.5551 17.1774 13.302 16.6542 13.254C16.2885 13.2191 15.9126 13.2497 15.5418 13.2497L14.4293 13.2497C14.0585 13.2497 13.6623 13.1798 13.322 13.2671C12.88 13.3762 12.6921 12.9835 12.3213 13.0053C11.9505 13.0271 11.5796 13.0097 11.2088 13.0097C10.9294 13.0097 10.6551 13.0097 10.3758 13.0097C10.0608 13.0097 9.72049 12.9486 9.5173 13.2409C9.33951 13.0228 9.09061 12.9835 8.80107 13.0053C8.36422 13.0402 7.88165 12.8962 7.52608 13.2453C7.15527 13.2453 6.78445 13.2453 6.41364 13.2453C6.0479 13.2453 5.63645 13.1711 5.32151 13.2889C5.00657 13.4068 4.78307 13.7122 4.52401 13.9435C4.36654 14.0831 4.12779 14.2227 4.10239 14.3842C4.05668 14.6591 3.90937 14.694 3.65031 14.6809C3.37093 14.6678 3.08139 14.7202 2.81724 14.6678C2.44643 14.5936 2.33468 14.9689 1.9537 14.9427C1.52701 14.9121 1.30351 15.1827 1.29843 15.5143C1.29843 15.7543 1.29843 15.9899 1.29843 16.2299C0.810781 16.5223 1.08 16.9542 1.02921 17.3251C1.00889 17.4691 0.947931 17.6437 1.13588 17.7615C1.38986 17.9186 1.51685 18.2851 1.86735 18.2458C2.30928 18.1978 2.58358 18.5076 3.00519 18.5338C3.14742 18.5425 3.28457 18.5905 3.4268 18.6516L3.42172 18.656Z" fill="#D9315A"/>
<path d="M3.42172 27.656C3.52839 27.6036 3.66554 27.5731 3.82809 27.5862C5.13864 27.6909 6.49999 27.6778 7.7953 27.4465C8.45057 27.3287 9.15157 27.2415 9.82716 27.2327C10.5942 27.224 11.2495 27.4116 12.0317 27.3025C12.1028 27.2938 12.1689 27.2938 12.2298 27.2982C12.24 27.2982 12.2451 27.2982 12.2552 27.2982C13.1797 27.2764 14.0991 27.272 15.0236 27.2633C15.5722 27.704 16.2478 27.4116 16.8523 27.5076C17.3704 27.5862 17.9698 27.2807 18.4067 27.7433L19.5191 27.7433C19.8442 27.7433 20.1795 27.6953 20.4893 27.7564C20.8246 27.8262 21.0887 28.0443 21.49 27.992C21.8964 27.9396 22.3231 27.992 22.7396 27.9745C23.0038 27.9614 23.2984 28.0836 23.527 27.8829C23.7454 27.6865 24.0959 27.704 24.3092 27.4727C24.614 27.1455 25.1575 27.1149 25.5436 26.8749C25.8331 26.696 26.1633 26.8138 26.4732 26.792C26.7475 26.7746 27.0269 26.792 27.3062 26.792C27.7228 26.792 28.1444 26.7702 28.5558 26.7964C28.9825 26.8269 29.267 26.6698 29.3787 26.3426C29.4397 26.1637 29.5565 26.1462 29.7038 26.059C30.2524 25.7361 30.8518 25.4263 30.8366 24.7237C30.8366 24.6234 31.1465 24.5667 30.9128 24.3834C30.5725 24.1172 30.1966 23.8554 29.9426 23.5325C29.6632 23.1834 29.2111 23.2838 28.886 23.1093C28.7235 23.022 28.5914 22.9565 28.3984 22.9609C28.0275 22.9696 27.6567 22.9609 27.2859 22.9609L24.9239 22.9609C24.5531 22.9609 24.1721 22.9129 23.8165 22.974C23.4051 23.0438 23.1968 22.7209 22.8158 22.7078C21.8304 22.6773 20.8144 22.9129 19.8747 22.4853C19.321 22.4853 18.7572 22.4417 18.2086 22.4984C17.6447 22.5551 17.1774 22.302 16.6542 22.254C16.2885 22.2191 15.9126 22.2497 15.5418 22.2497L14.4293 22.2497C14.0585 22.2497 13.6623 22.1798 13.322 22.2671C12.88 22.3762 12.6921 21.9835 12.3213 22.0053C11.9505 22.0271 11.5796 22.0097 11.2088 22.0097C10.9294 22.0097 10.6551 22.0097 10.3758 22.0097C10.0608 22.0097 9.72049 21.9486 9.5173 22.2409C9.33951 22.0228 9.09061 21.9835 8.80107 22.0053C8.36422 22.0402 7.88165 21.8962 7.52608 22.2453C7.15527 22.2453 6.78445 22.2453 6.41364 22.2453C6.0479 22.2453 5.63645 22.1711 5.32151 22.2889C5.00657 22.4068 4.78307 22.7122 4.52401 22.9435C4.36654 23.0831 4.12779 23.2227 4.10239 23.3842C4.05668 23.6591 3.90937 23.694 3.65031 23.6809C3.37093 23.6678 3.08139 23.7202 2.81724 23.6678C2.44643 23.5936 2.33468 23.9689 1.9537 23.9427C1.52701 23.9121 1.30351 24.1827 1.29843 24.5143C1.29843 24.7543 1.29843 24.9899 1.29843 25.2299C0.810781 25.5223 1.08 25.9542 1.02921 26.3251C1.00889 26.4691 0.947931 26.6437 1.13588 26.7615C1.38986 26.9186 1.51685 27.2851 1.86735 27.2458C2.30928 27.1978 2.58358 27.5076 3.00519 27.5338C3.14742 27.5425 3.28457 27.5905 3.4268 27.6516L3.42172 27.656Z" fill="#D9315A"/>
</svg>
