<svg viewBox="0 0 34 35" fill="none" xmlns="http://www.w3.org/2000/svg">
<path d="M26.7099 25.4906L22.9999 21.8106C24.44 20.015 25.1374 17.7359 24.9487 15.4419C24.76 13.1479 23.6996 11.0134 21.9854 9.47723C20.2713 7.94109 18.0337 7.1201 15.7328 7.18306C13.4319 7.24602 11.2426 8.18815 9.61505 9.81573C7.98747 11.4433 7.04534 13.6326 6.98237 15.9335C6.91941 18.2344 7.74041 20.472 9.27655 22.1861C10.8127 23.9003 12.9472 24.9607 15.2412 25.1494C17.5352 25.3381 19.8143 24.6407 21.6099 23.2006L25.2899 26.8806C25.3829 26.9743 25.4935 27.0487 25.6153 27.0995C25.7372 27.1502 25.8679 27.1764 25.9999 27.1764C26.1319 27.1764 26.2626 27.1502 26.3845 27.0995C26.5063 27.0487 26.6169 26.9743 26.7099 26.8806C26.8901 26.6941 26.9909 26.4449 26.9909 26.1856C26.9909 25.9263 26.8901 25.6771 26.7099 25.4906ZM15.9999 23.2006C14.6154 23.2006 13.2621 22.79 12.1109 22.0209C10.9598 21.2517 10.0626 20.1585 9.53275 18.8794C9.00293 17.6003 8.86431 16.1928 9.13441 14.835C9.4045 13.4771 10.0712 12.2298 11.0502 11.2508C12.0291 10.2719 13.2764 9.60519 14.6343 9.33509C15.9921 9.06499 17.3996 9.20362 18.6787 9.73343C19.9578 10.2632 21.051 11.1605 21.8202 12.3116C22.5894 13.4627 22.9999 14.8161 22.9999 16.2006C22.9999 18.0571 22.2624 19.8376 20.9497 21.1503C19.6369 22.4631 17.8564 23.2006 15.9999 23.2006Z" fill="#99A3AE"/>
<circle cx="16" cy="16.2002" r="7" stroke-width="2" stroke="#99A3AE"/>
</svg>
