<svg viewBox="0 0 66 50" fill="none" xmlns="http://www.w3.org/2000/svg">
<path d="M32.2802 2C30.3504 2 28.4954 2.53348 26.5876 2.65691C25.5971 2.721 24.9363 3.29688 23.9766 3.46186C22.9513 3.63813 22.068 4.28504 21.0703 4.50737C20.317 4.67526 19.5844 5.28871 18.8283 5.33083C17.5272 5.40332 16.5828 6.09336 15.5069 6.74643C14.704 7.23377 13.6788 7.60816 13.0158 8.23605C12.4906 8.73349 12.1368 8.648 11.5119 8.92998C11.2973 9.02684 10.622 9.3256 10.6816 9.31857C11.7047 9.19786 12.7374 8.79529 13.5694 8.18054C14.3429 7.60895 15.4705 7.45428 16.1712 6.8297C16.2775 6.73496 16.6999 6.61945 16.5679 6.67241C16.0785 6.86872 15.5918 7.32599 15.184 7.65316C14.2448 8.40662 13.1368 8.75967 12.0932 9.32783C11.3513 9.73168 11.0782 10.8491 10.3586 11.2523C9.96609 11.4723 9.49176 11.6576 9.38066 12.159C9.28992 12.5685 9.51942 13.1432 9.26994 13.5006C8.87997 14.0593 8.91738 14.752 8.66101 15.3233C8.57435 15.5164 8.03363 16.9879 8.03363 16.5724C8.03363 15.5821 8.95842 14.9557 9.5006 14.1945C10.4412 12.874 11.1627 11.6878 12.2685 10.4936C13.1768 9.51262 12.0835 10.1747 11.4289 10.4936C9.89187 11.2423 8.65291 12.8966 7.54463 14.1668C6.99622 14.7953 6.63191 15.5537 6.24373 16.2856C5.95543 16.8291 6.06302 17.4033 5.74552 17.951C5.40155 18.5443 5.04432 19.5407 5.04432 20.2363C5.04432 21.1565 3.06403 22.1168 3.4205 20.7267C3.49939 20.419 3.80533 20.2067 3.87259 19.9032C3.94099 19.5945 3.85446 19.2972 3.96485 18.9872C4.24608 18.1976 4.0079 17.2875 4.34313 16.4891C4.44153 16.2547 4.32176 15.9858 4.38926 15.7489C4.48104 15.4268 5.62309 14.8778 5.91159 14.6849C6.4553 14.3214 6.93608 14.1184 7.4616 13.7319C7.94509 13.3764 9.11182 12.5121 9.3253 11.9555C9.583 11.2836 9.55392 11.0722 10.1926 10.5029C10.4826 10.2443 11.28 9.35014 11.5581 9.32783C11.9278 9.29816 12.3692 9.01852 11.8717 9.60539C10.9673 10.6724 9.83059 11.5228 8.84553 12.5106C6.3255 15.0378 6.58628 19.3902 6.70505 22.7252C6.7351 23.5692 7.36934 24.1945 7.36934 25.029C7.36934 25.5625 7.36934 23.9619 7.36934 23.4283C7.36934 22.903 7.15202 21.8367 7.44315 21.3558C8.25311 20.018 9.28988 19.2637 9.51905 17.6549C9.59849 17.0972 9.19979 17.7388 9.06696 17.877C8.50751 18.4588 8.21153 19.0171 8.03363 19.8199C7.2835 23.2051 6.22314 26.5658 4.86902 29.7569C4.62931 30.3218 4.35869 30.8991 4.24164 31.5056C4.23983 31.515 4.2286 31.9502 4.20473 31.8664C4.07462 31.4098 4.04789 31.0339 4.04789 30.5526C4.04789 28.9673 4.07597 27.7388 3.4205 26.278C3.16944 25.7186 2.15099 25.0948 2.06424 24.5294C1.92529 23.6236 2.05502 22.6101 2.05502 21.6889C2.05502 21.0931 3.05145 20.0897 3.05145 21.3558C3.05145 23.1909 2.55323 24.9497 2.55323 26.8147C2.55323 27.7812 2.58405 28.799 2.37794 29.7292C2.13966 30.8044 2.05502 32.1253 2.05502 33.2358C2.05502 33.738 1.93414 34.4635 2.09192 34.9382C2.22412 35.3359 2.5881 35.6389 2.71008 36.067C2.86355 36.6056 3.21752 36.8762 3.21752 37.4733C3.21752 37.8106 3.22669 38.2967 3.47586 38.5466C3.68351 38.7548 4.35085 39.2377 4.38003 39.4718C4.45146 40.0449 5.10554 39.7738 5.33956 40.0085C5.93869 40.6093 6.01164 41.826 6.96338 42.0532C7.01908 42.0665 7.78995 42.1355 7.79374 42.1735C7.83877 42.6251 7.59724 42.8493 7.99672 43.2653C8.36336 43.6471 8.64958 43.8475 9.10387 43.9777C9.21824 44.0105 9.25988 44.4231 9.3622 44.5514C9.48852 44.7097 9.78164 44.6161 9.96191 44.6439C10.6057 44.7432 10.8133 45.1592 11.392 45.3378C11.8102 45.4668 11.8701 45.967 12.2777 45.967C13.1289 45.967 13.0842 46.5343 13.8831 46.6701C14.4593 46.7681 14.852 47.0928 15.3777 47.2623C15.7784 47.3914 16.2277 47.2203 16.6325 47.3363C17.2607 47.5163 17.4442 47.9655 18.081 47.9655C18.587 47.9655 19.206 48.0639 19.6956 47.9284C20.6781 47.6566 21.7158 47.5122 22.7126 47.29C22.9329 47.2409 22.9523 46.9787 23.2754 46.9662C23.516 46.9569 23.7827 47.0287 23.9397 46.7997C24.1063 46.5567 25.3838 45.967 25.7203 45.967C26.08 45.967 26.9562 45.3422 27.2611 45.1342C27.8423 44.7379 28.4928 44.4172 29.0326 43.8759C29.2093 43.6987 29.1425 43.3263 29.2909 43.0987C29.4683 42.8266 29.699 42.799 29.9183 42.5991C30.6072 41.9711 30.9627 41.0227 31.7266 40.4711C32.2417 40.0992 33.9956 39.5727 32.8338 38.8982C32.1082 38.477 31.9481 38.4448 31.9481 37.6029C31.9481 37.0169 31.9481 36.4309 31.9481 35.8449C31.9481 34.0107 32.4463 32.1786 32.4463 30.3491C32.4463 29.2215 32.4496 27.8707 32.6216 26.7499C32.7259 26.0701 32.9445 25.3669 32.9445 24.6496C32.9445 23.7795 32.9445 24.3445 32.9445 24.8995C32.9445 25.9136 32.9494 26.9126 32.7692 27.9065C32.5973 28.8546 32.6249 29.8113 32.4832 30.7747C32.4031 31.319 32.2802 31.8797 32.2802 32.4308C32.2802 33.171 32.2802 30.9505 32.2802 30.2103C32.2802 28.8523 32.5617 27.5071 32.6123 26.1855C32.6301 25.7215 32.7066 25.0986 32.6123 24.6496C32.5242 24.2297 31.228 24.1832 30.9055 24.1593C30.6503 24.1403 29.9798 24.4152 30.1397 24.2148C30.4924 23.7727 30.985 23.9835 29.9552 23.9835C28.7599 23.9835 29.1308 23.2466 28.2114 22.7344C27.8386 22.5267 27.7549 22.1194 27.2611 21.948C26.5959 21.717 26.8888 21.4196 26.7906 20.8284C26.6954 20.256 25.787 20.5437 25.4343 20.19C25.147 19.9019 24.7919 19.5019 24.4748 19.2833C23.3872 18.5335 21.5875 18.6541 20.2307 18.6541C18.8345 18.6541 17.4382 18.6541 16.042 18.6541C14.3998 18.6541 12.8383 19.3492 11.2997 19.8199C10.6568 20.0167 9.65064 20.6646 9.5375 21.4021C9.4001 22.2977 9.11111 22.6329 8.69791 23.4098C8.39147 23.986 7.80225 24.3426 7.40624 24.8532C7.35728 24.9163 8.82469 24.2632 9.03929 24.1685C10.0521 23.7216 11.1775 23.6299 12.1947 23.2155C14.1433 22.4217 16.1065 22.1018 18.1456 21.6149C19.524 21.2858 21.0627 20.6761 22.4635 20.6526C24.0478 20.6262 22.7187 21.4053 21.8361 21.8832C18.7536 23.5524 15.6856 25.2587 12.4807 26.6851C9.90305 27.8324 7.56473 29.496 5.33033 31.2095C4.84047 31.5852 4.76844 32.4392 4.30622 32.9027C4.11561 33.0938 3.78696 33.3951 3.67884 33.6429C3.59146 33.8432 4.11332 33.5597 4.30622 33.4578C5.34908 32.9074 6.40344 32.3636 7.42469 31.7739C11.6162 29.3538 15.8634 27.6312 20.5813 26.4816C23.5753 25.752 26.314 24.8103 29.1802 23.7244C30.2038 23.3366 31.7034 23.6504 32.76 23.6504C33.4667 23.6504 32.953 23.8552 32.5754 24.0205C29.1428 25.5235 25.7476 27.1324 22.3712 28.7577C18.9725 30.3937 15.5125 31.9384 12.1485 33.6429C10.4126 34.5225 8.73546 35.6873 7.2863 36.9922C6.19412 37.9757 4.95936 39.0574 4.04789 40.212C3.64256 40.7255 2.9879 41.5645 4.17705 41.1928C5.15511 40.8871 6.10691 40.4312 7.03719 40.0085C8.75644 39.2272 10.8187 38.7918 12.6467 38.3431C16.6678 37.356 20.8988 36.774 24.5855 34.7902C25.9498 34.0561 27.388 33.6943 28.8665 33.2728C29.7208 33.0292 30.5708 32.8179 31.4498 32.6806C31.6112 32.6555 33.0305 32.3166 33.2028 32.5141C33.2728 32.5943 27.3704 36.0655 27.0397 36.2335C24.0397 37.7573 21.1771 39.5396 18.2563 41.202C16.9582 41.9408 15.7425 42.8492 14.7503 43.9685C14.1464 44.6497 15.4884 45.1157 15.9221 45.1157C17.0797 45.1157 18.323 44.3577 19.4188 44.0425C21.5605 43.4265 23.6906 42.8193 25.8218 42.155C26.2155 42.0323 27.9414 40.5956 28.1284 40.9707" stroke="#D9315A" stroke-width="4" stroke-linecap="round"/>
<path d="M63.9997 2C63.0863 2 62.1729 2 61.2595 2C60.5675 2 59.8755 2 59.1836 2C58.3481 2 57.6586 2.66617 56.8678 2.66617C55.5472 2.66617 54.225 3.47005 53.002 3.83196C52.4744 3.98808 51.8719 3.94191 51.3966 4.24831C51.0548 4.46865 51.0459 4.58087 50.6124 4.68317C50.0941 4.80545 49.7438 5.19772 49.2008 5.29382C48.6234 5.396 48.123 5.53262 47.5585 5.70092C46.3036 6.07504 45.5398 7.00689 44.7537 7.89372C44.4507 8.23555 44.4492 8.48687 44.071 8.8282C43.539 9.30833 43.0314 9.7288 42.4933 10.1605C41.7612 10.7479 41.1941 11.3794 40.4912 12.0202C40.0029 12.4654 39.6817 13.1559 39.218 13.6209C38.9434 13.8963 38.2681 14.0524 38.1108 14.4073C37.723 15.2825 36.3619 15.6076 35.8965 16.4891C35.3476 17.5288 34.5617 18.9821 34.4388 20.153C34.4031 20.4924 34.2839 21.0061 34.1435 21.3188C33.863 21.9439 32.9551 22.965 34.1989 22.4661C35.6012 21.9036 37.0563 21.4808 37.834 20.1438C38.0529 19.7676 38.0099 19.1699 38.1016 18.7559C38.1973 18.3239 38.6984 17.7683 38.8858 17.3218C39.2172 16.5325 38.6152 15.2851 39.218 14.6201C40.1075 13.6389 41.1594 13.0193 41.9489 12.0295C42.2386 11.6664 42.28 11.3817 42.6594 11.0858C43.1327 10.7165 43.6226 10.4436 44.071 9.99399C45.8214 8.23866 39.9409 12.7323 37.8525 14.065C37.4908 14.2958 37.4281 14.9827 37.4281 15.4158C37.4281 17.0549 37.5682 18.6796 37.5942 20.3196C37.6223 22.0974 37.9263 23.8362 37.9263 25.6211C37.9263 26.2434 37.6828 27.7293 38.2953 28.147C39.8238 29.1893 39.5903 25.7185 39.3195 25.6581C38.7892 25.54 37.9231 25.355 37.4281 25.6859C36.9524 26.0039 37.1349 27.2529 36.8376 27.7214C36.5865 28.1172 36.1227 28.2755 35.8965 28.7207C35.6355 29.2344 35.6013 29.7167 35.6013 30.275C35.6013 30.7623 35.6013 31.2496 35.6013 31.7369C35.6013 33.1217 35.6013 34.5064 35.6013 35.8912C35.6013 36.4217 35.6013 36.9521 35.6013 37.4826C35.6013 38.3531 36.4122 38.5952 36.7269 39.3053C37.0314 39.9923 37.1575 40.8053 37.8156 41.2853C38.0522 41.4579 38.2404 42.1614 38.2584 42.4696C38.2804 42.8439 39.2152 43.1818 39.421 43.5428C39.8479 44.2922 41.5481 44.1169 42.1888 44.135C43.1102 44.161 43.3529 44.4205 43.9787 44.9585C44.1264 45.0854 44.3937 45.1819 44.4954 45.3378C44.7055 45.66 44.4293 45.9391 44.9013 45.967C45.1225 45.98 45.1455 46.2578 45.4088 46.2908C45.8518 46.3463 46.3386 46.3104 46.7835 46.3C47.9419 46.273 46.364 46.1335 45.9993 46.1335C44.6546 46.1335 43.2233 45.967 41.829 45.967C41.6927 45.967 40.5252 45.7322 41.0263 45.8374C41.8569 46.0118 42.6458 46.3081 43.462 46.5313C43.8501 46.6375 44.3183 46.5354 44.6707 46.7256C45.8554 47.3654 48.0022 47.0289 49.3484 47.1327C50.3405 47.2093 51.375 47.1327 52.43 47.1327C53.8719 47.1327 55.8096 46.2398 56.9877 45.4673C57.8605 44.8951 58.7331 44.2656 59.6818 43.7649C60.8209 43.1637 60.6905 41.5814 61.2595 40.5544C61.53 40.066 61.5762 39.4857 61.8038 38.9722C61.9739 38.5884 62.2212 38.0948 62.3297 37.7139C62.8377 35.9309 63.0032 33.8057 63.0032 31.9775C63.0032 31.5233 63.3354 31.1185 63.3354 30.7284C63.3354 30.15 63.3354 29.8396 63.3354 30.6451C63.3354 31.2288 63.2829 32.4113 63.6306 32.8472C63.8986 33.1831 63.6294 33.713 63.6675 32.6806C63.6996 31.8132 63.8336 30.914 63.8336 30.0067C63.8336 29.6997 63.9837 28.7464 63.7967 28.5171C63.6035 28.2804 63.5932 27.4198 63.4092 27.3143C62.9671 27.061 62.4119 26.6525 62.3297 26.1578C62.2411 25.6247 61.4059 25.3394 61.0473 25.0197C60.488 24.5212 60.5122 24.5682 60.5122 23.7337C60.5122 23.4204 60.6484 22.7111 60.3461 22.5216C59.9093 22.2479 58.9997 21.7974 58.8422 21.2448C58.5951 20.3774 57.1907 20.7224 57.1907 19.5701C57.1907 18.5235 55.1331 18.8207 54.4321 18.8207C52.8687 18.8207 51.2843 18.4876 49.6805 18.4876C47.7515 18.4876 45.8941 18.5896 44.1079 19.3573C42.7368 19.9466 41.2386 20.4448 39.9284 21.1523C39.4183 21.4277 38.8229 22.0481 38.6275 22.6141C38.5526 22.831 38.6744 23.1521 38.4891 23.3173C38.2791 23.5045 37.9439 23.6651 37.9263 23.9835C37.9198 24.1015 37.8697 24.4538 37.9448 24.5479C38.0452 24.6738 40.1899 23.6502 40.4266 23.5579C43.687 22.2864 47.1954 21.5205 50.5847 20.6897C50.9267 20.6058 52.3351 20.1075 52.0794 20.1808C50.5041 20.6321 48.6686 22.2763 47.5493 23.4283C46.7361 24.2652 46.0073 25.1802 45.1966 26.019C44.5289 26.7098 43.596 27.4537 43.1299 28.2951C42.3415 29.7183 41.1172 30.9731 40.076 32.218C39.0329 33.4653 37.927 34.3845 37.7602 36.141C37.6602 37.1937 37.377 37.5078 38.5168 36.6406C39.3652 35.9952 40.3156 35.6443 41.2662 35.1788C43.2075 34.228 45.1585 33.2986 47.1341 32.4216C49.8225 31.228 53.1822 29.8435 55.2809 27.6474C56.1186 26.7707 57.3839 26.157 58.1502 25.2788C58.8333 24.496 56.4352 26.4509 55.5484 26.9905C53.0475 28.5122 50.3516 29.7303 47.743 31.0522C46.8631 31.4981 45.9966 31.9653 45.132 32.4401C44.5859 32.74 43.7494 33.032 43.3606 33.5596C42.9439 34.125 42.6846 34.7001 42.1704 35.2158C41.7014 35.6861 41.1174 35.829 41.0817 36.4741C41.0611 36.8446 40.4366 37.3887 40.1683 37.6399C39.4983 38.2669 42.2426 37.584 42.4287 37.5474C44.7081 37.0981 47.0324 36.6777 49.2008 35.8079C50.335 35.3529 51.4073 34.6878 52.5314 34.1888C54.4548 33.335 56.4367 32.7865 58.427 32.1348C59.5583 31.7643 60.4647 31.1698 61.6747 30.9782C61.965 30.9322 63.9423 29.8751 63.8244 30.8209C63.7182 31.6727 61.5623 32.7803 60.9919 33.245C58.0353 35.654 54.476 36.9557 51.2675 38.9537C50.0453 39.7147 48.6973 40.1982 47.7246 41.313C46.8153 42.3551 45.8809 43.18 44.6799 43.8944C44.5705 43.9595 43.8758 44.3015 44.0802 44.3015C45.1902 44.3015 46.2089 44.2527 47.3002 44.0517C48.4445 43.8409 49.4178 43.2221 50.5109 42.8397C52.0576 42.2986 53.5781 41.6697 55.1794 41.3038C56.681 40.9607 58.1857 40.8223 59.6818 40.5544C60.6837 40.3749 61.6337 39.9535 62.6711 39.8049" stroke="#D9315A" stroke-width="4" stroke-linecap="round"/>
</svg>
