<svg  viewBox="0 0 34 35" fill="none" xmlns="http://www.w3.org/2000/svg">
<path fill-rule="evenodd" clip-rule="evenodd" d="M24.864 24.8083C28.314 21.3584 27.6148 15.0657 23.3023 10.7533C18.9899 6.44082 12.6972 5.74163 9.24726 9.19159C5.7973 12.6416 6.49648 18.9342 10.8089 23.2467C15.1214 27.5591 21.4141 28.2583 24.864 24.8083ZM23.9758 23.8896C23.9923 23.9105 24.0214 23.9162 24.0447 23.9033C24.0252 23.7914 24.0066 23.6794 23.988 23.5674C23.9481 23.3279 23.9083 23.0884 23.8606 22.8507C23.4958 21.0313 22.7911 19.3746 21.5172 17.9938C20.6423 17.0455 19.5947 16.3502 18.3799 15.9252C17.8991 15.757 17.4122 15.6064 16.9253 15.4559C16.5045 15.3257 16.0837 15.1956 15.6668 15.0541C14.0688 14.5116 12.712 13.6089 11.6693 12.2698C11.2993 11.7948 10.9407 11.3107 10.5822 10.8267C10.3961 10.5755 10.21 10.3243 10.0223 10.0744C9.93581 9.95924 9.84608 9.84683 9.75632 9.73439C9.71286 9.67994 9.66939 9.62548 9.62627 9.5707C9.64171 9.89482 9.68575 10.1979 9.74335 10.4986C10.0645 12.1697 10.6672 13.7192 11.7404 15.0605C12.7297 16.2971 13.981 17.1637 15.4835 17.658C15.8789 17.7882 16.2781 17.9073 16.6773 18.0264C17.0986 18.1521 17.5199 18.2777 17.9368 18.4165C19.3944 18.9018 20.6551 19.7028 21.6414 20.8883C22.0831 21.4192 22.5006 21.9701 22.9181 22.5209C23.1101 22.7743 23.3022 23.0277 23.4966 23.2791C23.6173 23.4351 23.7394 23.5898 23.8615 23.7446C23.8996 23.7929 23.9377 23.8412 23.9758 23.8896Z" fill="#99A3AE"/>
</svg>
