<svg width="34" height="35" viewBox="0 0 34 35" fill="none" xmlns="http://www.w3.org/2000/svg">
<path d="M25.1091 10.5678C24.0577 9.5115 22.6639 8.86679 21.1795 8.75013C19.6951 8.63348 18.218 9.05257 17.0151 9.93172C15.753 8.99112 14.1821 8.56461 12.6188 8.73807C11.0555 8.91154 9.61579 9.67209 8.58969 10.8666C7.56358 12.0611 7.02726 13.6008 7.08874 15.1756C7.15022 16.7504 7.80492 18.2434 8.92101 19.354L15.0808 25.5361C15.5966 26.0447 16.2914 26.3298 17.0151 26.3298C17.7388 26.3298 18.4335 26.0447 18.9493 25.5361L25.1091 19.354C26.2673 18.1864 26.9173 16.6071 26.9173 14.9609C26.9173 13.3147 26.2673 11.7354 25.1091 10.5678Z"/>
</svg>
